<?xml version="1.0" encoding="UTF-8"?>
<!-- Generator: Adobe Illustrator 15.0.2, SVG Export Plug-In . SVG Version: 6.00 Build 0)  -->
<!DOCTYPE svg PUBLIC "-//W3C//DTD SVG 1.1//EN" "http://www.w3.org/Graphics/SVG/1.1/DTD/svg11.dtd">
<svg xmlns="http://www.w3.org/2000/svg" xmlns:xlink="http://www.w3.org/1999/xlink" version="1.1" id="Layer_1" x="0px" y="0px" width="512.003px" height="929.985px" viewBox="0 0 512.003 929.985" enable-background="new 0 0 512.003 929.985" xml:space="preserve">
<g>
	<path d="M14.49,516.476C2.116,530.553-2.709,549.738,1.478,567.987c4.186,18.249,16.972,33.348,34.228,40.556   c41.266,17.284,111.424,28.211,191.287,30.425c0,0.113-0.057,0.227-0.057,0.397v174.372c0,32.07,13.027,116.248,29.062,116.248   s29.062-84.178,29.062-116.248V639.365c0-0.171-0.057-0.284-0.057-0.454c79.864-2.157,150.021-13.141,191.287-30.425   c17.256-7.209,30.027-22.308,34.228-40.557c4.2-18.248-0.624-37.434-12.998-51.454c-23.84-27.019-65.446-41.947-96.212-49.737   V165.659l0,0c30.396-10.288,56.194-23.201,76.629-38.257c17.426-12.843,26.252-34.398,22.875-55.797   c-3.349-21.386-18.362-39.166-38.938-46.091C433.492,15.979,369.011,0,255.998,0C136.557,0,70.585,18.419,47.738,26.338   c-20.277,7.023-35.05,24.691-38.357,45.905c-3.32,21.158,5.35,42.501,22.493,55.457c20.689,15.51,47.141,28.65,78.757,38.995h0.057   v300.043C79.993,474.472,38.316,489.4,14.49,516.476z M128.767,111.48c-30.34-9.934-50.05-21.271-61.956-30.283   c30.921-10.699,93.516-23.073,189.188-23.073c93.827,0,155.953,11.92,187.455,22.492c-12.346,9.067-31.871,20.164-60.819,29.998   l-39.45,13.368v387.98l43.82,11.097c32.127,8.117,56.449,19.98,66.865,31.844c-26.934,11.239-92.323,26.338-197.871,26.338   c-105.549,0-170.938-15.099-197.857-26.338c10.458-11.863,34.767-23.727,66.851-31.844l43.82-11.097V124.563L128.767,111.48z" fill="#000000"/>
</g>
</svg>
